<svg width="1832" height="747" viewBox="0 0 1832 747" fill="none" xmlns="http://www.w3.org/2000/svg">
<rect x="1145.4" y="121.733" width="66.3999" height="33.2" fill="#D12627"/>
<rect x="1322.47" y="121.733" width="66.3999" height="33.2" fill="#D12627"/>
<path d="M1388.87 121.733C1388.87 105.747 1385.72 89.9173 1379.6 75.1479C1373.48 60.3786 1364.51 46.9588 1353.21 35.6548C1341.91 24.3509 1328.49 15.3841 1313.72 9.26639C1298.95 3.14872 1283.12 -6.9878e-07 1267.13 0C1251.15 6.98781e-07 1235.32 3.14872 1220.55 9.26639C1205.78 15.3841 1192.36 24.3509 1181.05 35.6548C1169.75 46.9588 1160.78 60.3786 1154.67 75.1479C1148.55 89.9173 1145.4 105.747 1145.4 121.733H1211.84C1211.84 114.473 1213.27 107.283 1216.05 100.575C1218.83 93.8673 1222.9 87.7723 1228.04 82.6383C1233.17 77.5043 1239.27 73.4317 1245.97 70.6532C1252.68 67.8747 1259.87 66.4446 1267.13 66.4446C1274.39 66.4446 1281.58 67.8747 1288.29 70.6532C1295 73.4317 1301.09 77.5043 1306.23 82.6383C1311.36 87.7723 1315.43 93.8673 1318.21 100.575C1320.99 107.283 1322.42 114.473 1322.42 121.733H1388.87Z" fill="#D12627"/>
<path fill-rule="evenodd" clip-rule="evenodd" d="M1797.89 509.838C1825.56 583.179 1830.84 661.656 1831.09 740.999C1831.1 744.313 1828.41 747 1825.09 747L1798.33 747H965.567H943.844H935.133L708.295 747C708.268 747 708.24 747 708.213 746.999H702V679.499H704.292C708.045 620.036 717.696 560.819 738.262 506.3C766.626 431.111 804.819 361.881 857.228 304.334C909.638 246.786 976.885 199.912 1045.36 168.767C1113.84 137.623 1189.81 121.734 1263.93 121.734C1338.05 121.734 1416.78 137.623 1485.26 168.767C1553.74 199.912 1623.75 246.786 1676.16 304.334C1728.57 361.881 1769.53 434.649 1797.89 509.838ZM965.129 680.6C965.129 628.646 978.168 579.202 998.329 531.202C1018.49 483.202 1049.61 443.44 1086.86 406.702C1124.11 369.964 1170.99 340.816 1219.66 320.933C1268.33 301.051 1321.91 284.967 1374.59 284.967C1427.28 284.967 1480.86 289.986 1529.53 309.868C1578.2 329.751 1616.78 358.896 1654.03 395.634C1691.28 432.372 1714 483.966 1734.16 531.966C1754.32 579.966 1764.69 628.646 1764.69 680.6H1757.73C1757.71 680.6 1757.69 680.6 1757.67 680.6H971.128C971.11 680.6 971.092 680.6 971.073 680.6H965.567H965.129Z" fill="#D12627"/>
<path fill-rule="evenodd" clip-rule="evenodd" d="M420.811 735.654C428.075 742.918 437.927 746.999 448.2 746.999V708.266V669.532C437.927 669.532 428.075 673.613 420.811 680.877C413.547 688.141 409.467 697.993 409.467 708.266C409.467 718.538 413.547 728.39 420.811 735.654ZM741.466 669.533H448.2V746.999H741.466V669.533Z" fill="#D12627"/>
<path fill-rule="evenodd" clip-rule="evenodd" d="M1034.73 177.066H475.866V254.533H1034.73V177.066ZM448.477 243.189C455.741 250.453 465.593 254.533 475.866 254.533V215.8V177.067C465.593 177.067 455.741 181.148 448.477 188.412C441.213 195.675 437.133 205.527 437.133 215.8C437.133 226.073 441.213 235.925 448.477 243.189Z" fill="#D12627"/>
<path fill-rule="evenodd" clip-rule="evenodd" d="M829.999 343.066H636.333V420.533H829.999V343.066ZM608.944 409.188C616.208 416.452 626.06 420.533 636.333 420.533V381.8V343.066C626.06 343.066 616.208 347.147 608.944 354.411C601.68 361.675 597.6 371.527 597.6 381.8C597.6 392.072 601.68 401.924 608.944 409.188Z" fill="#D12627"/>
<path fill-rule="evenodd" clip-rule="evenodd" d="M149.678 735.654C156.942 742.918 166.794 746.999 177.066 746.999V708.266V669.532C166.794 669.532 156.942 673.613 149.678 680.877C142.414 688.141 138.333 697.993 138.333 708.266C138.333 718.538 142.414 728.39 149.678 735.654ZM177.066 669.533H332V746.999H177.066V669.533ZM332 746.999C342.273 746.999 352.125 742.918 359.388 735.654C366.652 728.39 370.733 718.539 370.733 708.266C370.733 697.993 366.652 688.141 359.388 680.877C352.125 673.613 342.273 669.533 332 669.533V708.266V746.999Z" fill="#D12627"/>
<path fill-rule="evenodd" clip-rule="evenodd" d="M746.999 509.066H420.533V586.533H746.999V509.066ZM393.145 575.188C400.408 582.452 410.26 586.533 420.533 586.533V547.8V509.066C410.26 509.066 400.408 513.147 393.145 520.411C385.881 527.675 381.8 537.527 381.8 547.8C381.8 558.072 385.881 567.924 393.145 575.188Z" fill="#D12627"/>
<path fill-rule="evenodd" clip-rule="evenodd" d="M66.4002 509.066H315.4H315.4C325.673 509.066 335.524 513.147 342.788 520.411C350.052 527.675 354.133 537.527 354.133 547.8C354.133 558.072 350.052 567.924 342.788 575.188C335.524 582.452 325.673 586.533 315.4 586.533H315.4H66.4002V509.066ZM39.0115 575.188C46.2754 582.452 56.1273 586.533 66.4 586.533V547.8V509.066C56.1273 509.066 46.2754 513.147 39.0115 520.411C31.7476 527.675 27.6667 537.527 27.6667 547.8C27.6667 558.072 31.7476 567.924 39.0115 575.188Z" fill="#D12627"/>
<path fill-rule="evenodd" clip-rule="evenodd" d="M309.867 343.066H514.6V420.533H309.867V343.066ZM309.867 420.533C299.594 420.533 289.742 416.452 282.478 409.188C275.214 401.924 271.134 392.072 271.134 381.8C271.134 371.527 275.214 361.675 282.478 354.411C289.742 347.147 299.594 343.066 309.867 343.066V381.8V420.533ZM541.989 409.188C534.725 416.452 524.873 420.533 514.6 420.533V381.8V343.066C524.873 343.066 534.725 347.147 541.989 354.411C549.253 361.675 553.334 371.527 553.334 381.8C553.334 392.072 549.253 401.924 541.989 409.188Z" fill="#D12627"/>
<path fill-rule="evenodd" clip-rule="evenodd" d="M38.7334 343.066H188.133C198.406 343.066 208.258 347.147 215.522 354.411C222.786 361.675 226.866 371.527 226.866 381.8C226.866 392.072 222.786 401.924 215.522 409.188C208.258 416.452 198.406 420.533 188.133 420.533H38.7334V343.066ZM38.7333 420.533C28.4606 420.533 18.6086 416.452 11.3447 409.188C4.08082 401.924 0 392.072 0 381.8C0 371.527 4.08082 361.675 11.3447 354.411C18.6086 347.147 28.4606 343.066 38.7333 343.066V381.8V420.533Z" fill="#D12627"/>
</svg>
